<svg xmlns="http://www.w3.org/2000/svg" xmlns:xlink="http://www.w3.org/1999/xlink" width="69" height="70" viewBox="0 0 69 70">
    <defs>
        <path id="b" d="M20.274 29.777l4.533.628a11.556 11.556 0 0 1 2.151-2.803l-1.779-4.216a16.078 16.078 0 0 1 3.808-2.198l2.762 3.648a11.556 11.556 0 0 1 3.502-.462l1.724-4.239c.69.087 1.383.22 2.074.401l.176.047c.689.189 1.355.42 1.997.69l-.627 4.533a11.557 11.557 0 0 1 2.802 2.151l4.216-1.778a16.079 16.079 0 0 1 2.198 3.808l-3.648 2.761c.328 1.122.489 2.302.462 3.503l4.239 1.723a16.128 16.128 0 0 1-1.138 4.247l-4.533-.627a11.556 11.556 0 0 1-2.151 2.803l1.779 4.215c-.573.446-1.175.851-1.801 1.214l-.056.033c-.628.36-1.28.679-1.951.952l-2.762-3.648a11.556 11.556 0 0 1-3.502.462l-1.724 4.239a16.118 16.118 0 0 1-2.056-.396l-.211-.057a16.118 16.118 0 0 1-1.98-.685l.627-4.533a11.556 11.556 0 0 1-2.802-2.152l-4.216 1.78a16.074 16.074 0 0 1-1.222-1.815l-.016-.027a16.074 16.074 0 0 1-.96-1.967l3.648-2.761a11.556 11.556 0 0 1-.462-3.503l-4.24-1.723a16.126 16.126 0 0 1 1.139-4.248zm16.606-.796a7.265 7.265 0 1 0-3.76 14.037 7.266 7.266 0 1 0 3.76-14.037z"/>
        <filter id="a" width="294%" height="294%" x="-97%" y="-44.4%" filterUnits="objectBoundingBox">
            <feOffset dy="20" in="SourceAlpha" result="shadowOffsetOuter1"/>
            <feGaussianBlur in="shadowOffsetOuter1" result="shadowBlurOuter1" stdDeviation="10"/>
            <feColorMatrix in="shadowBlurOuter1" values="0 0 0 0 0 0 0 0 0 0 0 0 0 0 0 0 0 0 0.1 0"/>
        </filter>
    </defs>
    <g fill="none" fill-rule="evenodd" transform="translate(0 -20)">
        <use fill="#000" filter="url(#a)" xlink:href="#b"/>
        <use fill="#D42562" xlink:href="#b"/>
    </g>
</svg>
