<svg width="72" height="72" xmlns="http://www.w3.org/2000/svg" xmlns:xlink="http://www.w3.org/1999/xlink">
 <defs>
  <path d="m47,46.583l0,-10.583c0,-6.627 -5.373,-12 -12,-12s-12,5.373 -12,12l0,10.583a16.087,16.087 0 0 1 -0.366,-0.43a2,2 0 0 1 -3.634,-1.153l0,-7.999c0,-0.088 0.006,-0.175 0.017,-0.26a16.271,16.271 0 0 1 -0.017,-0.741c0,-8.837 7.163,-16 16,-16s16,7.163 16,16c0,0.248 -0.006,0.494 -0.017,0.74c0.011,0.085 0.017,0.172 0.017,0.26l0,8a2,2 0 0 1 -3.634,1.154c-0.12,0.145 -0.242,0.288 -0.366,0.43l0,-0.001zm-18,-9.583a2,2 0 0 1 2,2l0,12a2,2 0 0 1 -4,0l0,-12a2,2 0 0 1 2,-2zm12,0a2,2 0 0 1 2,2l0,12a2,2 0 0 1 -4,0l0,-12a2,2 0 0 1 2,-2z" id="b"/>
  <filter filterUnits="objectBoundingBox" y="-54.3%" x="-114.7%" height="322.9%" width="329.4%" id="a"/>
 </defs>
 <g>
  <title>background</title>
  <rect fill="none" id="canvas_background" height="402" width="582" y="-1" x="-1"/>
 </g>
 <g>
  <title>Layer 1</title>
  <g stroke="null" id="svg_1" fill-rule="evenodd" fill="none">
   <use transform="matrix(1.96875,0,0,1.96875,-1.9375,-3.875) " stroke="null" id="svg_2" x="-15.730159" y="-16.246032" xlink:href="#b" filter="url(#a)" fill="#000"/>
   <use transform="matrix(1.96875,0,0,1.96875,-1.9375,-3.875) " stroke="null" id="svg_3" x="-15.730159" y="-16.246032" xlink:href="#b" fill="#D42562"/>
  </g>
 </g>
</svg>