<?xml version="1.0"?>
<svg xmlns="http://www.w3.org/2000/svg" xmlns:xlink="http://www.w3.org/1999/xlink" version="1.1" id="Layer_1" x="0px" y="0px" viewBox="0 0 512 512" style="enable-background:new 0 0 512 512;" xml:space="preserve" width="50px" height="50px" class=""><g><circle style="fill:#FF5722;" cx="256" cy="256" r="256" data-original="#FF5722" class=""/><path style="fill:#2C0900;" d="M311.855,358.4c0,5.143-4.17,9.309-9.309,9.309h-65.071V144.291h65.071  c5.139,0,9.309,4.17,9.309,9.309V358.4z" data-original="#2C0900"/><path style="fill:#FFFFFF;" d="M237.382,395.636c0,2.923-1.368,5.674-3.7,7.433c-2.332,1.759-5.357,2.323-8.164,1.517  l-118.37-36.878V144.291l118.37-36.878c2.807-0.801,5.832-0.237,8.164,1.522s3.7,4.51,3.7,7.429V395.636z" data-original="#FFFFFF"/><path style="fill:#FFE4DE;" d="M330.566,293.236h-65.164c-5.143,0-9.309-4.166-9.309-9.309v-55.855c0-5.139,4.166-9.309,9.309-9.309  h65.164v-27.927c0-3.766,2.267-7.159,5.748-8.602c3.477-1.443,7.48-0.642,10.142,2.02l55.673,65.164  c3.635,3.635,3.635,9.528,0,13.168l-55.673,65.164c-2.662,2.662-6.665,3.458-10.142,2.02c-3.482-1.443-5.748-4.836-5.748-8.602  V293.236z" data-original="#FFE4DE"/><circle style="fill:#DE5735;" cx="200.239" cy="237.382" r="18.618" data-original="#DE5735"/><path style="fill:#FFC7B2" d="M346.363,327.745c-2.662,2.662-6.665,3.458-10.147,2.02c-3.477-1.443-5.744-4.836-5.744-8.602  v-27.927h-65.164c-5.139,0-9.309-4.17-9.309-9.309V256h148.764c0,2.383-0.908,4.762-2.728,6.582L346.363,327.745z" data-original="#FFC7B2" class="active-path"/></g> </svg>
