<?xml version="1.0" encoding="iso-8859-1"?>
<!-- Generator: Adobe Illustrator 19.0.0, SVG Export Plug-In . SVG Version: 6.00 Build 0)  -->
<svg version="1.1" id="Capa_1" xmlns="http://www.w3.org/2000/svg" xmlns:xlink="http://www.w3.org/1999/xlink" x="0px" y="0px"
	 viewBox="0 0 463.994 463.994" style="enable-background:new 0 0 463.994 463.994;" xml:space="preserve">
<g>
	<path style="fill:#DEE1E9;" d="M415.994,112c0-5.919,3.222-11.074,8-13.842v-17.15c-13.802,3.552-24,16.081-24,30.992
		c0,14.911,10.198,27.44,24,30.992v-17.15C419.217,123.074,415.994,117.919,415.994,112z"/>
	<path style="fill:#DEE1E9;" d="M463.994,112c0-14.911-10.198-27.44-24-30.992v17.15c4.778,2.768,8,7.923,8,13.842
		s-3.222,11.074-8,13.842v17.15C453.796,139.44,463.994,126.911,463.994,112z"/>
	<path style="fill:#5F555A;" d="M332.117,140.754c0.898,0.958,1.792,1.918,2.667,2.89
		C333.909,142.672,333.016,141.712,332.117,140.754z"/>
	
	
		<path style="fill:#CACDD2;" d="M431.994,96c2.918,0,5.645,0.794,8,2.158v-17.15V72h-8h-8v9.008v17.15
		C426.35,96.794,429.077,96,431.994,96z"/>
	<path style="fill:#CACDD2;" d="M431.994,128c-2.918,0-5.645-0.794-8-2.158v17.15v148.946c0,18.781-11.043,35.93-28.137,43.703
		l-27.569,12.531l-29.438,13.381l-13.741,6.246l-38.039,17.29l6.62,14.561l2.841-1.291l22.198-10.09l37.739-17.154l46.005-20.911
		c22.793-10.359,37.52-33.227,37.52-58.266V142.992v-17.15C437.639,127.206,434.912,128,431.994,128z"/>
	<path style="fill:#DEE1E9;" d="M269.113,389.176c-1.64,0.751-3.088,1.864-4.235,3.256L248.753,412h25.13
		c1.711,0,3.402-0.369,4.958-1.081l1.198-0.549l15.335-7.02l-1.346-2.961l-0.337-0.74l-6.62-14.561l-1.556-3.422L269.113,389.176z"
		/>
	<path style="fill:#7D787D;" d="M413.346,0.458c-2.309,0.811-4.131,2.647-4.92,4.966C409.216,3.105,411.037,1.269,413.346,0.458z"/>
	<path style="fill:#7D787D;" d="M408.036,7.182c0.041-0.407,0.122-0.802,0.223-1.189C408.158,6.38,408.077,6.775,408.036,7.182z"/>
	<path style="fill:#7D787D;" d="M423.994,8v40v16c0,4.418,3.582,8,8,8h8h8c4.418,0,8-3.582,8-8V8c0-4.418-3.582-8-8-8h-16
		C427.576,0,423.994,3.582,423.994,8z"/>
	<path style="fill:#7D787D;" d="M408.258,66.006c-0.1-0.387-0.181-0.781-0.223-1.189C408.077,65.225,408.158,65.62,408.258,66.006z"
		/>
	<path style="fill:#5F555A;" d="M423.994,64V48V8c0-4.418,3.582-8,8-8h-16c-0.93,0-1.818,0.167-2.648,0.458
		c-2.309,0.811-4.131,2.647-4.92,4.966c-0.064,0.187-0.118,0.377-0.168,0.569c-0.1,0.387-0.181,0.781-0.223,1.189
		c-0.027,0.269-0.041,0.542-0.041,0.818v56c0,0.276,0.014,0.549,0.041,0.818c0.041,0.407,0.122,0.802,0.223,1.189
		c0.05,0.193,0.104,0.383,0.168,0.569c0.789,2.319,2.611,4.155,4.92,4.966c0.83,0.292,1.719,0.458,2.648,0.458h8h8
		C427.576,72,423.994,68.418,423.994,64z"/>
	<path style="fill:#7D787D;" d="M423.994,98.158c-4.778,2.768-8,7.923-8,13.842s3.222,11.074,8,13.842
		c2.355,1.364,5.082,2.158,8,2.158s5.645-0.794,8-2.158c4.778-2.768,8-7.923,8-13.842s-3.222-11.074-8-13.842
		c-2.355-1.364-5.082-2.158-8-2.158S426.35,96.794,423.994,98.158z"/>
</g>

</svg>
