<svg xmlns="http://www.w3.org/2000/svg" width="32" height="28" viewBox="0 0 32 28">
    <path fill="#888" fill-opacity=".75" fill-rule="evenodd" d="M1.767 24.074v-.494c3.004 0 8.981-6.53 13.785-11.778 5.794-6.332 10.8-11.8 14.676-11.8v.074A1.328 1.328 0 0 1 32 1.328v1.344a1.328 1.328 0 0 1-1.772 1.252v.49c-2.293 0-7.65 5.854-11.956 10.558-6.129 6.696-11.918 13.021-16.505 13.021v-.067A1.328 1.328 0 0 1 0 26.672v-1.344a1.328 1.328 0 0 1 1.767-1.254zm0-20.148A1.328 1.328 0 0 1 0 2.672V1.328A1.328 1.328 0 0 1 1.767.074V.002c3.396 0 6.832 2.812 10.946 7.035.57.587.764 1.467.562 2.25-.08.313-.224.61-.431.867-.386.479-.916.722-1.447.722-.47 0-.941-.19-1.316-.574-2.67-2.741-6.028-5.887-8.314-5.887v-.49zm28.46 20.15A1.328 1.328 0 0 1 32 25.328l.001 1.344a1.328 1.328 0 0 1-1.772 1.252v.07c-3.016 0-5.95-2.498-10.308-7.106-.789-.834-.829-2.23-.09-3.12.738-.888 1.976-.933 2.764-.1 2.706 2.86 5.75 5.912 7.634 5.912v.496z"/>
</svg>
